<?xml version="1.0" encoding="UTF-8"?>
<svg width="512px" height="512px" viewBox="0 0 512 512" version="1.1" xmlns="http://www.w3.org/2000/svg" xmlns:xlink="http://www.w3.org/1999/xlink">
    <!-- Generator: Sketch 58 (84663) - https://sketch.com -->
    <title>Aase</title>
    <desc>Created with Sketch.</desc>
    <g id="Aase" stroke="none" stroke-width="1" fill="none" fill-rule="evenodd">
        <g id="right_leg" transform="translate(206.612109, 319.000000)">
            <polygon id="Rectangle" fill="#F1D0C3" points="4.38789098 140.768278 19.1293382 131 26.387891 157.694641 11.6464438 167.462919"></polygon>
            <path d="M0.432569047,0 C0.234343578,49.0206686 0.12724519,88.2502239 13.3254918,134" id="Path-4" stroke="#254B6C" stroke-width="25" stroke-linecap="square"></path>
            <path d="M18.887891,178.272401 C27.4483046,178.272401 34.387891,180.046702 34.387891,171.643736 C34.387891,163.240771 27.4483046,156.428821 18.887891,156.428821 C10.3274774,156.428821 3.38789098,163.240771 3.38789098,171.643736 C3.38789098,180.046702 10.3274774,178.272401 18.887891,178.272401 Z" id="Oval" fill="#545454"></path>
            <path d="M4.38789098,177.293628 C13.6890076,178.49416 20.1379226,178.49416 32.387891,177.920615" id="Path-6" stroke="#282727" stroke-width="6" stroke-linecap="round"></path>
        </g>
        <g id="left_leg" transform="translate(261.612109, 317.428821)">
            <rect id="Rectangle" fill="#F1D0C3" transform="translate(30.887891, 156.071179) rotate(-23.000000) translate(-30.887891, -156.071179) " x="21.387891" y="136.571179" width="19" height="39"></rect>
            <path d="M0.557429877,0.571178817 C0.243572883,49.5918474 -1.5093329,88.8214027 19.387891,134.571179" id="Path-4" stroke="#254B6C" stroke-width="25" stroke-linecap="square"></path>
            <path d="M33.887891,179.86491 C44.6574436,179.86491 53.387891,181.397261 53.387891,174.140154 C53.387891,166.883047 44.6574436,161 33.887891,161 C23.1183384,161 14.387891,166.883047 14.387891,174.140154 C14.387891,181.397261 23.1183384,179.86491 33.887891,179.86491 Z" id="Oval" fill="#545454"></path>
            <path d="M16.387891,178 C28.0142867,181.601595 36.0754305,181.601595 51.387891,179.880961" id="Path-6" stroke="#282727" stroke-width="6" stroke-linecap="round"></path>
        </g>
        <rect id="hips" fill="#254B6C" x="195" y="288" width="80" height="45" rx="2"></rect>
        <path d="M278.112109,93.5033641 C281.738511,101.320701 283.551713,106.319986 283.551713,108.50122 C283.551713,111.773071 285.491316,116.244184 283.551713,125 C282.258644,130.837211 280.445442,136.980151 278.112109,143.428821 C276.011559,147.714702 276.011559,150.548035 278.112109,151.928821 C280.212659,153.309607 285.184862,153.309607 293.028719,151.928821 L285.413848,160.428821 L265.554047,163.303581 L243.850123,160.428821 L242,125 L278.112109,93.5033641 Z" id="hair" fill="#FCE08B"></path>
        <rect id="neck" fill="#F1D0C3" x="219" y="130" width="29" height="29"></rect>
        <ellipse id="head" fill="#FFDDD0" cx="229.112109" cy="80" rx="52.5" ry="57"></ellipse>
        <path d="M246.5,74.4288212 C248.985281,74.4288212 251,76.2196822 251,78.4288212 C251,80.6379602 248.985281,82.4288212 246.5,82.4288212 C244.014719,82.4288212 242,80.6379602 242,78.4288212 C242,76.2196822 244.014719,74.4288212 246.5,74.4288212 Z M197.5,70.4288212 C199.985281,70.4288212 202,72.2196822 202,74.4288212 C202,76.6379602 199.985281,78.4288212 197.5,78.4288212 C195.014719,78.4288212 193,76.6379602 193,74.4288212 C193,72.2196822 195.014719,70.4288212 197.5,70.4288212 Z" id="eye-2" fill="#020202"></path>
        <ellipse id="ear" fill="#FFDDD0" cx="278.112109" cy="85.5" rx="12.5" ry="13.5"></ellipse>
        <path d="M201.116812,102.161441 C199.855084,98.7001101 201.093928,95 203.338198,95 C205.582468,95 205.913505,95.0045962 209.425105,97.1705564 C212.936705,99.3365166 215.221528,101.512699 220.629924,101.512699 C226.03832,101.512699 232.183911,98.3557325 234.558393,97.7923193 C236.932874,97.228906 239.612109,97.1435775 239.612109,101.512699 C239.612109,104.425447 237.723457,107.132169 233.946152,109.632866 C230.55139,111.830447 227.299091,113.430124 224.189254,114.431897 C219.524499,115.934557 214.292279,114.16107 211.449393,112.533137 C208.606507,110.905205 202.378539,105.622771 201.116812,102.161441 Z" id="smile" fill="#FFFFFF"></path>
        <g id="torso" transform="translate(193.612109, 143.000000)">
            <rect id="Rectangle" fill="#97949D" x="0.387890978" y="13.4288212" width="82" height="139" rx="2"></rect>
            <path d="M19.0690488,5.65599648 L36.8884589,16.9560821 C36.9758133,21.821294 36.6368965,24.2538999 35.8717084,24.2538999 C35.1065203,24.2538999 34.0426308,23.7818026 32.6800399,22.8376081 C31.7140246,23.7818026 30.8013977,24.2538999 29.9421593,24.2538999 C29.0829209,24.2538999 28.0519643,23.4711949 26.8492897,21.9057848 C25.4854422,22.7266756 24.273388,22.8988498 23.2131272,22.4223073 C22.1528664,21.9457648 21.5297797,20.9821868 21.3438671,19.5315734 L19.0690488,20.2356438 C17.4552535,20.4551999 16.460297,19.9132177 16.0841792,18.6096971 C15.7080615,17.3061765 15.7080615,16.2692097 16.0841792,15.4987968 C14.7788068,15.928399 13.7186458,15.7499866 12.9036965,14.9635595 C12.0887471,14.1771324 11.7710039,13.0258657 11.9504667,11.5097594 L16.6257271,4.25389992 L19.0690488,5.65599648 Z" id="Path-7" fill="#D8D8D8" transform="translate(24.401885, 14.253900) rotate(-15.000000) translate(-24.401885, -14.253900) "></path>
            <path d="M48.4151146,4.49624838 L68.3728539,16.5551431 C68.4706909,21.7470576 68.091104,24.3430148 67.2340933,24.3430148 C66.3770827,24.3430148 65.1855264,23.8392158 63.6594246,22.8316179 C62.5774875,23.8392158 61.5553454,24.3430148 60.5929983,24.3430148 C59.6306513,24.3430148 58.4759799,23.5077505 57.1289843,21.837222 C55.6014751,22.7132362 54.2439745,22.896972 53.0564824,22.3884293 C51.8689903,21.8798867 51.1711332,20.8516037 50.9629111,19.3035805 L48.4151146,20.0549299 C46.6076638,20.2892293 45.4933125,19.7108525 45.0720607,18.3197996 C44.6508088,16.9287466 44.6508088,15.8221467 45.0720607,15 C43.6100435,15.4584504 42.4226632,15.2680574 41.50992,14.4288212 C40.5971767,13.5895849 40.2413042,12.3610098 40.4423026,10.7430958 L45.6785942,3 L48.4151146,4.49624838 Z" id="Path-7" fill="#D8D8D8" transform="translate(54.387891, 13.671507) scale(-1, 1) rotate(-10.000000) translate(-54.387891, -13.671507) "></path>
            <path d="M18.8059411,82.3373564 C29.8164614,83.3713347 39.4505149,75.5200426 40.3242017,64.8010046 C41.1978885,54.0819666 32.9803612,44.5542644 21.9698409,43.520286 C10.9593205,42.4863077 1.3252671,50.3375998 0.451580291,61.0566378 C-0.422106517,71.7756758 7.79542071,81.303378 18.8059411,82.3373564 Z" id="Oval" fill="#908C97"></path>
            <path d="M63.4245873,82.3373564 C73.6093186,83.3713347 82.5208181,75.5200426 83.3289784,64.8010046 C84.1371387,54.0819666 76.535926,44.5542644 66.3511946,43.520286 C56.1664633,42.4863077 47.2549639,50.3375998 46.4468036,61.0566378 C45.6386433,71.7756758 53.239856,81.303378 63.4245873,82.3373564 Z" id="Oval" fill="#908C97"></path>
            <path d="M21.8059411,80.3279753 C32.8164614,81.4680027 42.4505149,72.8114499 43.3242017,60.9930234 C44.1978885,49.1745969 35.9803612,38.6696944 24.9698409,37.529667 C13.9593205,36.3896396 4.3252671,45.0461925 3.45158029,56.864619 C2.57789348,68.6830455 10.7954207,79.1879479 21.8059411,80.3279753 Z" id="Oval" fill="#97949D"></path>
            <path d="M59.4245873,80.3279753 C69.6093186,81.4680027 78.5208181,72.8114499 79.3289784,60.9930234 C80.1371387,49.1745969 72.535926,38.6696944 62.3511946,37.529667 C52.1664633,36.3896396 43.2549639,45.0461925 42.4468036,56.864619 C41.6386433,68.6830455 49.239856,79.1879479 59.4245873,80.3279753 Z" id="Oval" fill="#97949D"></path>
        </g>
        <g id="right_arm" transform="translate(177.000000, 241.000000) rotate(166.000000) translate(-177.000000, -241.000000) translate(140.000000, 174.000000)">
            <path d="M0.815675234,133.222937 C36.6839251,133.222937 56.7423549,87.2031084 59.8156752,39.2229369" stroke="#97949D" stroke-width="24" stroke-linecap="round"></path>
            <g id="hand" transform="translate(42.423461, 0.963377)">
                <path d="M14.8476552,28.3850951 C3.58021733,24.3832804 8.04776439,29.109483 0.847655217,16.3850951" id="Path" stroke="#FFDDD0" stroke-width="6" stroke-linecap="round"></path>
                <polyline id="Path-2" stroke="#FFDDD0" stroke-width="6" stroke-linecap="round" points="9.05335248 3.34895929 9.05335248 5.35071521 9.05335248 6.01234823 9.05335248 6.50260284 9.05335248 7.3580901 9.05335248 7.84413049 9.05335248 8.50716824 9.05335248 9.170206 9.05335248 9.50734384 9.05335248 9.99759845 9.05335248 10.4878531 9.05335248 10.8249909 9.05335248 11.1621287 9.05335248 11.3658162 9.05335248 11.702954 9.05335248 11.9080462 9.05335248 12.245184 9.05335248 12.4474668 9.05335248 12.6525589 9.05335248 12.8576511 9.05335248 13.0627433 9.05335248 13.2678355 9.05335248 13.4729277 9.05335248 13.6780199 9.05335248 14.0151577 9.05335248 14.2202499 9.05335248 14.4253421 9.05335248 14.6304343 9.05335248 14.8355265 9.05335248 14.9282394 9.05335248 15.1333315 9.05335248 15.2260445 9.05335248 15.3173526 9.05335248 15.4100655 9.05335248 15.5013737 9.05335248 15.7064659 9.05335248 15.7991788 9.05335248 16.004271 9.05335248 16.3357898 9.05335248 16.540882 9.05335248 16.7445695 9.05335248 16.9496617 9.05335248 17.1533491 9.05335248 17.246062 9.05335248 17.4511542 9.05335248 17.5438671 9.05335248 17.63658 9.05335248 17.7292929 9.05335248 17.8163869 9.05335248 17.9090998 9.05335248 18.0018127 9.05335248 18.2069049 9.05335248 18.2996178 9.05335248 18.5047099 9.05335248 18.5960181 9.05335248 18.8011103 9.05335248 18.8938232 9.05335248 18.9865361 9.05335248 19.079249 9.05335248 19.1719619 9.05335248 19.2646748 9.05335248 19.3489593"></polyline>
                <path d="M16.1008925,0.889603483 C15.7675592,6.88960348 15.4342259,12.8896035 15.1008925,18.8896035" id="Path-3" stroke="#FFDDD0" stroke-width="6" stroke-linecap="round"></path>
                <path d="M22.7900285,3.08090207 C22.4767802,9.01397905 22.1635319,14.947056 21.8502837,20.880133" id="Path-3" stroke="#FFDDD0" stroke-width="6" stroke-linecap="round" transform="translate(22.320156, 11.980518) rotate(10.000000) translate(-22.320156, -11.980518) "></path>
                <path d="M30.8680103,8.93062317 C28.534677,13.9306232 26.2013437,18.9306232 23.8680103,23.9306232" id="Path-5" stroke="#FFDDD0" stroke-width="6" stroke-linecap="round"></path>
                <circle id="Oval" fill="#FFDDD0" cx="15.4903642" cy="26.8671705" r="12.5"></circle>
            </g>
        </g>
        <g id="left_arm" transform="translate(253.500000, 216.136628) scale(-1, 1) rotate(-36.000000) translate(-253.500000, -216.136628) translate(212.000000, 163.636628)">
            <path d="M50.9543353,3.14336553 C33.8159817,-2.62931738 19.6033757,0.92805373 8.31651711,13.8154789 C-2.97034147,26.702904 -1.27940559,42.5859489 13.3893248,61.4646135" stroke="#97949D" stroke-width="24" stroke-linecap="round"></path>
            <g id="coffee_cup" transform="translate(52.088881, 84.860209) scale(-1, 1) rotate(-36.000000) translate(-52.088881, -84.860209) translate(32.588881, 58.360209)">
                <path d="M4.5,20.5 C3.29083345,18.5949393 3.29083345,16.7857647 4.5,15.072476 C6.31374982,12.502543 12.505947,11.5943192 15,9.26901803 C17.494053,6.9437169 18.2811721,5.13226143 16.6405861,3.08903929 C15.546862,1.72689119 14.4277799,0.803566851 13.2833396,0.31906627 C17.0338113,1.05231922 19.7124306,1.97564356 21.3191977,3.08903929 C22.9259648,4.20243502 24.1549568,6.64259963 25.0061737,10.4095331 C25.0502192,12.4994054 24.5901884,14.0537197 23.6260812,15.072476 C22.661974,16.0912323 23.1220048,17.9004069 25.0061737,20.5 L4.5,20.5 Z" id="Path-8" fill-opacity="0.2" fill="#D8D8D8"></path>
                <rect id="cup" fill="#131111" x="0" y="19" width="29" height="33" rx="6"></rect>
                <circle id="Oval" stroke="#131111" stroke-width="7" cx="28.5" cy="36.5" r="7"></circle>
                <circle id="Oval" stroke="#979797" stroke-width="3" cx="14" cy="32" r="4.5"></circle>
                <path d="M8,27.9899698 C8.68518967,27.0854901 9.39578322,26.4221668 10.1317806,26 L13.4923365,30.2141773 L12.2529277,32 L6.99409648,31.0690547 C6.97950915,29.9208112 7.31481033,28.8944495 8,27.9899698 Z" id="Path-9" fill="#E5853C"></path>
            </g>
            <g id="hand" transform="translate(1.161022, 52.552700)">
                <path d="M35.9579938,23.3956158 C23.7028261,18.9545775 28.5620087,24.1995096 20.7307212,10.0785426" id="Path" stroke="#FFDDD0" stroke-width="6" stroke-linecap="round" transform="translate(28.344358, 16.737079) rotate(138.000000) translate(-28.344358, -16.737079) "></path>
                <polyline id="Path-2" stroke="#FFDDD0" stroke-width="6" stroke-linecap="round" transform="translate(34.150074, 25.483092) rotate(138.000000) translate(-34.150074, -25.483092) " points="34.1500742 18.8245554 34.1500742 20.4906511 34.1500742 21.0413395 34.1500742 21.4493868 34.1500742 22.1614235 34.1500742 22.5659632 34.1500742 23.1178208 34.1500742 23.6696785 34.1500742 23.950284 34.1500742 24.3583313 34.1500742 24.7663786 34.1500742 25.0469842 34.1500742 25.3275898 34.1500742 25.4971223 34.1500742 25.7777279 34.1500742 25.9484296 34.1500742 26.2290352 34.1500742 26.3973985 34.1500742 26.5681003 34.1500742 26.738802 34.1500742 26.9095037 34.1500742 27.0802055 34.1500742 27.2509072 34.1500742 27.4216089 34.1500742 27.7022145 34.1500742 27.8729162 34.1500742 28.0436179 34.1500742 28.2143197 34.1500742 28.3850214 34.1500742 28.4621879 34.1500742 28.6328897 34.1500742 28.7100562 34.1500742 28.7860535 34.1500742 28.8632201 34.1500742 28.9392174 34.1500742 29.1099192 34.1500742 29.1870857 34.1500742 29.3577874 34.1500742 29.6337162 34.1500742 29.804418 34.1500742 29.9739505 34.1500742 30.1446522 34.1500742 30.3141848 34.1500742 30.3913513 34.1500742 30.562053 34.1500742 30.6392196 34.1500742 30.7163861 34.1500742 30.7935526 34.1500742 30.8660424 34.1500742 30.9432089 34.1500742 31.0203755 34.1500742 31.1910772 34.1500742 31.2682437 34.1500742 31.4389455 34.1500742 31.5149428 34.1500742 31.6856445 34.1500742 31.7628111 34.1500742 31.8399776 34.1500742 31.9171441 34.1500742 31.9943107 34.1500742 32.0714772 34.1500742 32.1416286"></polyline>
                <path d="M29.110465,24.6812311 C28.4763186,28.169036 27.8421723,31.6568409 27.2080259,35.1446457" id="Path-3" stroke="#FFDDD0" stroke-width="6" stroke-linecap="round" transform="translate(28.159245, 29.912938) rotate(138.000000) translate(-28.159245, -29.912938) "></path>
                <path d="M22.4513431,26.7549121 C22.1342699,30.242717 21.8171967,33.7305218 21.5001236,37.2183267" id="Path-3" stroke="#FFDDD0" stroke-width="6" stroke-linecap="round" transform="translate(21.975733, 31.986619) rotate(148.000000) translate(-21.975733, -31.986619) "></path>
                <path d="M17.1328255,27.9428151 C15.8645329,30.7964736 14.5962402,33.6501321 13.3279475,36.5037907" id="Path-5" stroke="#FFDDD0" stroke-width="6" stroke-linecap="round" transform="translate(15.230387, 32.223303) rotate(138.000000) translate(-15.230387, -32.223303) "></path>
                <ellipse id="Oval" fill="#FFDDD0" transform="translate(19.792683, 19.317073) rotate(138.000000) translate(-19.792683, -19.317073) " cx="19.7926829" cy="19.3170732" rx="13.7926829" ry="13.3170732"></ellipse>
            </g>
        </g>
        <ellipse id="Oval" fill-opacity="0.4" fill="#FBB4B4" transform="translate(254.702085, 93.503364) rotate(-3.000000) translate(-254.702085, -93.503364) " cx="254.702085" cy="93.5033641" rx="10.5" ry="7"></ellipse>
        <ellipse id="Oval" fill-opacity="0.4" fill="#FBB4B4" transform="translate(188.858286, 88.530468) rotate(13.000000) translate(-188.858286, -88.530468) " cx="188.858286" cy="88.5304675" rx="10.5" ry="7"></ellipse>
        <path d="M220.155095,41.5664631 C222.21792,46.1732319 225.582667,49.8059377 230.249333,52.4645806 C237.249333,56.4525449 236.081864,57.4856381 247.737402,62.743298 C255.50776,66.2484046 262.953186,68.8102457 270.073681,70.4288212 L281.612109,72 C279.197702,56.7912453 277.083291,47.8909259 275.268875,45.2990417 C272.54725,41.4112154 266.380983,31.489254 259.873301,26.8226169 C253.36562,22.1559798 241.710708,20.2183342 239.480657,19.6354285 C237.250606,19.0525228 232.252635,18.3297404 224.263535,18.3297404 C218.937469,18.3297404 212.793585,19.5045645 205.831883,21.8542128 C198.38618,23.6271655 191.711952,28.309884 185.809199,35.9023682 C176.95507,47.2910946 177.05242,60.0660758 177.05242,60.0660758 C177.05242,60.0660758 182.060065,60.8309393 187.981246,59.0697686 C191.928701,57.8956547 198.281672,54.0627172 207.040161,47.5709559 C210.18045,44.5765263 212.523211,42.3002433 214.068443,40.742107 C215.613675,39.1839706 217.12823,37.5707244 218.612109,35.9023682 L220.155095,41.5664631 Z" id="hair_banks" fill="#FCE08B"></path>
    </g>
</svg>